<?xml version="1.0" encoding="utf-8"?>
<!-- Generator: Adobe Illustrator 26.0.3, SVG Export Plug-In . SVG Version: 6.00 Build 0)  -->
<svg version="1.1" id="Layer_1" xmlns="http://www.w3.org/2000/svg" xmlns:xlink="http://www.w3.org/1999/xlink" x="0px" y="0px"
	 viewBox="0 0 26.51 28" style="enable-background:new 0 0 26.51 28;" xml:space="preserve">
<style type="text/css">
	.st0{fill-rule:evenodd;clip-rule:evenodd;fill:#FFDA00;}
	.st1{fill-rule:evenodd;clip-rule:evenodd;fill:#296E01;}
</style>
<g>
	<g>
		<g>
			<path class="st0" d="M6.66,10.31c0.05,0,0.1,0.02,0.13,0.05l0.39,0.37c0.04,0.04,0.06,0.09,0.06,0.14c0,0.03-0.01,0.06-0.02,0.09
				C7.25,11,7.28,11.04,7.3,11.08c0.03,0.06,0.04,0.11,0.04,0.16c0,0.12-0.07,0.23-0.19,0.28c0.04,0.06,0.05,0.11,0.05,0.16
				c0,0.09-0.03,0.18-0.16,0.28c-0.07,0.05-0.15,0.07-0.21,0.07c-0.01,0-0.03,0-0.04,0c0.01,0.03,0.01,0.05,0.01,0.08l0,0.02
				c0,0,0.01,0.01,0.01,0.01l0.53,0.5c0,0.01,0.01,0.01,0.02,0.02c0.01,0.02,0.02,0.04,0.02,0.07l0,0c0,0.03-0.01,0.06-0.03,0.08
				c-0.02,0.02-0.04,0.03-0.06,0.04c-0.01,0-0.02,0-0.03,0H6.86v8.27c0.04,0,0.08,0.02,0.11,0.05l0.59,0.56
				c0.01,0.01,0.01,0.01,0.02,0.02c0.01,0.02,0.02,0.04,0.02,0.07v0c0,0.03-0.01,0.06-0.03,0.08c-0.02,0.02-0.04,0.03-0.06,0.04
				c-0.01,0-0.02,0-0.03,0H4.35c-0.01,0-0.02,0-0.03,0c-0.02-0.01-0.04-0.02-0.06-0.04c-0.02-0.02-0.03-0.05-0.03-0.08v0
				c0-0.02,0-0.04,0.02-0.07c0-0.01,0.01-0.01,0.02-0.02l0.57-0.55v-8.33H4.47c-0.01,0-0.02,0-0.02,0c-0.03,0-0.05-0.02-0.06-0.04
				c-0.02-0.02-0.03-0.05-0.03-0.08v0c0-0.02,0.01-0.04,0.02-0.07c0-0.01,0.01-0.01,0.02-0.02l0.53-0.5c0,0,0,0,0.01-0.01V12.1
				c0-0.02,0-0.05,0.01-0.08c-0.01,0-0.03,0-0.04,0c-0.07,0-0.14-0.02-0.21-0.07c-0.13-0.1-0.16-0.19-0.16-0.28
				c0-0.05,0.01-0.1,0.05-0.16c-0.13-0.05-0.19-0.15-0.19-0.28c0-0.04,0.01-0.1,0.04-0.15c0.02-0.04,0.04-0.08,0.08-0.11
				c-0.01-0.03-0.02-0.06-0.02-0.09c0-0.05,0.02-0.1,0.06-0.14l0.39-0.37c0.03-0.03,0.08-0.05,0.13-0.05H6.66z"/>
			<path class="st0" d="M17.89,12.8c-0.02-0.02-0.03-0.05-0.03-0.08v0c0-0.02,0.01-0.04,0.02-0.07c0.01-0.01,0.01-0.01,0.02-0.02
				l0.53-0.5c0,0,0.01,0,0.01-0.01V12.1c0-0.02,0-0.05,0.01-0.08c-0.01,0-0.02,0-0.04,0c-0.07,0-0.14-0.02-0.21-0.07
				c-0.14-0.1-0.17-0.19-0.17-0.28c0-0.05,0.01-0.1,0.05-0.16c-0.13-0.05-0.19-0.16-0.19-0.28c0-0.04,0.01-0.1,0.04-0.15
				c0.02-0.04,0.04-0.08,0.08-0.11c-0.01-0.03-0.02-0.06-0.02-0.09c0-0.05,0.02-0.1,0.06-0.14l0.39-0.37
				c0.04-0.03,0.08-0.05,0.13-0.05h1.6c0.05,0,0.1,0.02,0.13,0.05l0.39,0.37c0.04,0.04,0.06,0.09,0.06,0.14
				c0,0.03-0.01,0.06-0.02,0.09c0.03,0.03,0.06,0.07,0.08,0.11c0.03,0.06,0.04,0.11,0.04,0.15c0,0.13-0.07,0.23-0.19,0.28
				c0.03,0.06,0.05,0.11,0.05,0.16c0,0.09-0.03,0.18-0.17,0.28c-0.08,0.05-0.15,0.07-0.21,0.07c-0.01,0-0.02,0-0.04,0
				c0.01,0.03,0.01,0.05,0.01,0.08c0,0.01,0,0.02,0,0.02c0,0,0.01,0.01,0.01,0.01l0.53,0.5c0.01,0.01,0.01,0.01,0.02,0.02
				c0.01,0.02,0.02,0.04,0.02,0.07v0c0,0.03-0.01,0.06-0.03,0.08c-0.02,0.02-0.04,0.03-0.06,0.04c-0.01,0-0.02,0-0.02,0h-0.37v8.33
				l0.8,0.75h-3.71l0.9-0.86v-8.22h-0.38c-0.01,0-0.02,0-0.03,0C17.93,12.83,17.91,12.82,17.89,12.8z"/>
			<path class="st0" d="M7.34,19.3v-6.24c0-0.04,0.03-0.07,0.07-0.07h0.46L7.52,12.4c-0.12-0.13-0.16-0.27-0.16-0.46
				c0-0.06,0-0.12,0.01-0.19c0.02-0.19,0.11-0.29,0.19-0.37c0.03-0.04,0.06-0.07,0.08-0.11c0-0.01,0.01-0.02,0.01-0.03
				c0-0.08-0.07-0.14-0.13-0.21C7.49,11,7.46,10.96,7.43,10.93c-0.04-0.05-0.06-0.12-0.06-0.18c0-0.05,0.01-0.1,0.04-0.13
				c0.01-0.02,0.03-0.03,0.05-0.04c0.02-0.01,0.04-0.01,0.06-0.01h10.15c0.02,0,0.05,0,0.06,0.01c0.02,0.01,0.04,0.02,0.05,0.04
				c0.03,0.03,0.04,0.07,0.04,0.13c0,0.06-0.02,0.14-0.06,0.19c-0.02,0.03-0.06,0.07-0.09,0.1c-0.06,0.07-0.13,0.14-0.13,0.21
				c0,0.01,0,0.02,0.01,0.03c0.02,0.04,0.05,0.07,0.08,0.11c0.08,0.09,0.17,0.18,0.19,0.37c0.01,0.07,0.01,0.13,0.01,0.19
				c0,0.19-0.04,0.33-0.16,0.46l-0.35,0.58h0.46c0.04,0,0.07,0.03,0.07,0.07v6.24H7.34z"/>
			<path class="st0" d="M6.09,9.87c0-0.19,0.16-0.35,0.36-0.35h12.29c0.2,0,0.36,0.16,0.36,0.35c0,0.19-0.16,0.35-0.36,0.35H6.45
				C6.25,10.22,6.09,10.06,6.09,9.87z"/>
			<path class="st0" d="M12.16,2.94c-0.06,0-0.13,0.01-0.19,0.02L11.9,2.97c-0.14,0.01-0.29,0.02-0.43,0.02
				c-0.19,0-0.39-0.02-0.55-0.13c-0.09-0.07-0.18-0.17-0.18-0.29c0-0.15,0.13-0.26,0.25-0.32c0.14-0.08,0.3-0.13,0.47-0.16
				c0.12-0.02,0.25-0.03,0.37-0.03c0.2,0,0.39,0.02,0.58,0.04l0.02,0c0.02,0,0.03,0,0.04,0c0.03,0,0.05,0.01,0.08,0.01l0.25,0.03
				c0.01,0,0.02,0,0.04,0c0.32,0.03,0.65,0.07,0.97,0.08l0.1,0c0.24,0,0.49-0.03,0.73-0.09c0.07-0.02,0.15-0.04,0.21-0.09
				c0.01-0.01,0.02-0.02,0.02-0.03l0-0.01c0-0.02-0.01-0.03-0.03-0.04c-0.04-0.03-0.09-0.04-0.15-0.05c-0.03,0-0.05,0-0.08,0
				c-0.12,0-0.25,0.01-0.37,0.03l-0.23,0.02c-0.02,0-0.03,0-0.04,0c0,0-0.01,0-0.02,0h-0.01c-0.08,0-0.16,0.01-0.24,0.01
				c-0.15,0-0.29-0.01-0.43-0.05c-0.17-0.05-0.34-0.19-0.34-0.37c0-0.09,0.04-0.17,0.1-0.23c0.21-0.19,0.51-0.2,0.78-0.2
				c0.1,0,0.21,0,0.31,0.01l0.09,0c0.09,0,0.18,0.01,0.27,0.01c0.12,0,0.25,0,0.36-0.04c0.02-0.01,0.04-0.02,0.05-0.03
				c0,0,0,0-0.01,0c-0.09-0.05-0.2-0.06-0.31-0.07l-0.01,0c-0.08-0.01-0.14-0.07-0.14-0.15c0-0.09,0.08-0.15,0.17-0.15h0.01
				c0.13-0.01,0.26-0.02,0.4-0.02c0.13,0,0.26,0.01,0.4,0.03c0.09,0.02,0.17,0.04,0.25,0.08c0.11,0.06,0.21,0.17,0.21,0.31l0,0.02
				c-0.02,0.16-0.17,0.26-0.32,0.31c-0.11,0.04-0.22,0.06-0.33,0.07c0.16,0.01,0.31,0.05,0.43,0.15c0.09,0.07,0.15,0.18,0.15,0.3
				c0,0.07-0.02,0.13-0.05,0.19c-0.07,0.16-0.24,0.27-0.4,0.33c-0.19,0.07-0.4,0.09-0.6,0.1l-0.09,0c-0.2,0-0.4-0.01-0.61-0.03
				c-0.01,0-0.03,0-0.04-0.01l-0.08,0l-0.11,0c-0.31-0.01-0.61-0.04-0.92-0.07c-0.04,0-0.07-0.01-0.11-0.01l-0.26-0.03
				c-0.02,0-0.05-0.01-0.07-0.01c-0.02,0-0.04,0-0.05-0.01c-0.19,0.01-0.4,0.03-0.56,0.15c0.03,0.02,0.07,0.03,0.1,0.03
				c0.05,0.01,0.11,0.01,0.16,0.01c0.12,0,0.24-0.02,0.36-0.04l0.17-0.03c0.01,0,0.01,0,0.02,0c0.07-0.01,0.14-0.02,0.21-0.02
				c0.09,0,0.18,0.02,0.27,0.05c0.13,0.04,0.26,0.14,0.25,0.28c0,0.06-0.03,0.12-0.06,0.17c0.02,0.01,0.05,0.01,0.07,0.02
				c0.32,0.11,0.46,0.31,0.46,0.48c0,0.04-0.01,0.08-0.02,0.12c2.63,0.55,4.64,2.81,4.8,5.57l0,0.02c0,0.02-0.01,0.03-0.02,0.05
				c-0.01,0.02-0.02,0.03-0.04,0.04c-0.01,0.01-0.03,0.02-0.05,0.02l-11.88,0C6.62,9.31,6.61,9.3,6.6,9.3
				C6.58,9.29,6.57,9.27,6.56,9.25C6.55,9.24,6.54,9.22,6.54,9.21V9.19C6.7,6.41,8.73,4.13,11.4,3.6
				C11.37,3.36,11.61,3.05,12.16,2.94z M11.53,2.69c-0.03-0.04-0.05-0.09-0.05-0.14c0-0.06,0.03-0.12,0.07-0.17
				c-0.01,0-0.02,0-0.04,0.01c-0.14,0.03-0.29,0.06-0.42,0.15c-0.01,0.01-0.03,0.02-0.03,0.04c0.01,0.02,0.03,0.04,0.05,0.05
				c0.1,0.07,0.23,0.06,0.35,0.06L11.53,2.69z M12.92,2.81c0.01,0.02,0.01,0.04,0.01,0.07l0,0.01c0,0.01,0,0.02-0.01,0.03
				c0.04-0.02,0.08-0.04,0.11-0.07c0,0,0,0,0,0C13.03,2.84,13.02,2.83,13,2.83C12.98,2.82,12.95,2.81,12.92,2.81z M13.37,1.64
				c0.11,0.03,0.22,0.04,0.33,0.04c0.07,0,0.14,0,0.21-0.01c0.29-0.07,0.58-0.14,0.87-0.17c-0.29-0.01-0.58-0.04-0.86-0.07l-0.12,0
				c-0.18,0.01-0.39-0.01-0.54,0.11c-0.01,0.01-0.01,0.01-0.01,0.02c0,0.01,0.01,0.02,0.01,0.03C13.3,1.61,13.33,1.63,13.37,1.64z
				 M15.11,1.79c0.05,0.06,0.09,0.13,0.09,0.22c0,0.02,0,0.05-0.01,0.07c-0.01,0.06-0.04,0.11-0.08,0.15
				c0.08-0.02,0.16-0.05,0.23-0.1c0.04-0.03,0.07-0.06,0.09-0.1c0.01-0.02,0.02-0.05,0.02-0.08c0-0.03-0.02-0.06-0.05-0.08
				C15.32,1.81,15.22,1.79,15.11,1.79z M15.19,1.2c0.1-0.01,0.2-0.02,0.3-0.07c0.01-0.01,0.03-0.02,0.04-0.03V1.09
				c0-0.01-0.01-0.02-0.02-0.03C15.45,1.03,15.39,1.01,15.33,1c-0.04-0.01-0.08-0.01-0.11-0.01c0.01,0.02,0.01,0.05,0.01,0.07
				C15.23,1.11,15.21,1.15,15.19,1.2z M12.58,4.22c-1.82,0.74-3.11,2.51-3.14,4.59h6.29C15.69,6.73,14.4,4.96,12.58,4.22z"/>
		</g>
		<path class="st0" d="M7.47,21.01v-0.59c0-0.44,0.35-0.79,0.79-0.79h8.65c0.44,0,0.79,0.35,0.79,0.79v0.59
			c0,0.44-0.36,0.79-0.79,0.79H8.26C7.83,21.8,7.47,21.45,7.47,21.01z"/>
	</g>
	<g>
		<path class="st1" d="M7.68,20.42c0-0.37,0.3-0.68,0.68-0.68H17c0.37,0,0.68,0.3,0.68,0.68v0.59c0,0.38-0.3,0.68-0.68,0.68H8.35
			c-0.38,0-0.68-0.3-0.68-0.68V20.42z M8.35,19.85c-0.31,0-0.57,0.25-0.57,0.57v0.59c0,0.31,0.25,0.57,0.57,0.57H17
			c0.31,0,0.56-0.25,0.56-0.57v-0.59c0-0.31-0.25-0.57-0.56-0.57H8.35z"/>
		<path class="st1" d="M15.63,20.14l-0.09,0.04v0.78h-0.17v-1.01L15.63,20.14z M14.42,20.97v0.02c0,0.03-0.01,0.06-0.02,0.09
			c-0.01,0.02-0.03,0.04-0.05,0.05c-0.03,0.02-0.07,0.03-0.11,0.04c-0.05,0.01-0.09,0.03-0.1,0.05c-0.02-0.02-0.05-0.04-0.11-0.06
			c-0.07-0.02-0.11-0.05-0.14-0.08c-0.02-0.03-0.03-0.06-0.03-0.1v-0.02h-0.61v-0.14h0.79v0.15c0,0.02,0.01,0.04,0.03,0.06
			c0.02,0.01,0.04,0.02,0.07,0.02c0.02,0,0.05-0.01,0.07-0.02c0.02-0.02,0.03-0.03,0.03-0.05V20.7h-0.98v-0.37l0.24,0.07l-0.07,0.07
			v0.08h1v0.27h0.54v0h0.01v-0.64l-0.08-0.04l0.26-0.19v1.01H14.42z M14.08,20.31l-0.14,0.11l-0.15-0.11l0.15-0.11L14.08,20.31z
			 M12.92,20.81c-0.01-0.04-0.04-0.08-0.08-0.12l-0.03-0.03c-0.04,0.04-0.08,0.08-0.1,0.12c-0.02,0.05-0.02,0.09,0.01,0.12
			c0.02,0.03,0.06,0.05,0.1,0.05c0.05,0,0.08-0.02,0.1-0.04C12.93,20.87,12.93,20.84,12.92,20.81z M12.7,20.58l-0.12-0.08
			l-0.24,0.18l0.18,0.13c0.01-0.04,0.03-0.08,0.06-0.11C12.63,20.64,12.67,20.61,12.7,20.58z M11.48,21.19l-0.14,0.11l-0.15-0.11
			l0.15-0.11L11.48,21.19z M10.63,20.97l-0.44-0.36l-0.06,0.06c-0.01,0.01-0.01,0.02-0.01,0.03c0,0.01,0.01,0.02,0.02,0.04
			l0.28,0.22c0.05,0.05,0.06,0.1,0.03,0.16c-0.02,0.05-0.05,0.09-0.1,0.12c-0.08,0.04-0.16,0.07-0.26,0.07
			c-0.1,0-0.18-0.02-0.24-0.05c-0.06-0.04-0.1-0.09-0.1-0.16c0-0.04,0.01-0.08,0.02-0.11c0.01-0.03,0.02-0.06,0.01-0.09
			c0-0.03-0.02-0.06-0.05-0.08c0.04-0.01,0.07,0,0.1,0.01c0.02,0.01,0.04,0.03,0.04,0.05c0,0.02,0,0.04-0.01,0.05
			c0.02,0,0.04,0.01,0.06,0.03c0.01,0.02,0.02,0.03,0.02,0.05c0,0.02,0,0.03-0.01,0.04C9.91,21.01,9.89,21,9.87,20.99
			c-0.02,0-0.04,0.01-0.06,0.03c-0.02,0.02-0.02,0.05-0.01,0.09c0.01,0.02,0.03,0.04,0.05,0.06c0.02,0.02,0.05,0.03,0.09,0.04
			c0.07,0.01,0.13,0.01,0.19,0c0.06-0.02,0.11-0.05,0.13-0.09c0.02-0.04,0.02-0.08-0.01-0.11L10,20.8c-0.04-0.03-0.06-0.07-0.06-0.1
			c0-0.03,0.01-0.07,0.04-0.1l0.18-0.21l0.51,0.42h0.68v0h0.1v-0.1l-0.08-0.05l0.27-0.2v0.34h0.06v0h0.61l-0.22-0.16l0.5-0.37
			l0.24,0.17c0.05-0.04,0.08-0.09,0.09-0.13c0.01-0.06,0.01-0.1,0-0.14c0.05,0.04,0.08,0.1,0.09,0.16c0.01,0.06-0.02,0.13-0.06,0.19
			l0.03,0.03c0.05,0.05,0.09,0.1,0.11,0.14c0.02,0.04,0.03,0.08,0.03,0.11v0.01c0,0.07-0.02,0.12-0.07,0.16
			c-0.06,0.05-0.13,0.08-0.22,0.09h0c-0.07,0-0.13-0.01-0.18-0.04c-0.05-0.02-0.08-0.05-0.09-0.09H10.63z M10.29,21.45l-0.13,0.08
			l-0.11-0.06l-0.1,0.06l-0.13-0.08l0.13-0.08l0.11,0.06l0.11-0.06L10.29,21.45z"/>
		<g>
			<path class="st1" d="M6.42,11.58c0,0.26-0.21,0.47-0.47,0.47s-0.47-0.21-0.47-0.47c0-0.26,0.21-0.47,0.47-0.47
				S6.42,11.32,6.42,11.58z M6.27,11.58c0-0.18-0.14-0.32-0.32-0.32c-0.18,0-0.32,0.14-0.32,0.32c0,0.18,0.14,0.32,0.32,0.32
				C6.13,11.9,6.27,11.75,6.27,11.58z M6.81,10.95H5.09c-0.03,0.04-0.09,0.07-0.16,0.1c-0.07,0.03-0.15,0.07-0.19,0.14
				c-0.01,0.02-0.01,0.03-0.01,0.04c0,0.05,0.06,0.04,0.1,0.04l0.03,0c0.03,0,0.07,0.01,0.09,0.03c0.03,0.03,0.06,0.1,0.06,0.14
				v0.01c0,0.03-0.01,0.05-0.03,0.07c-0.06,0.06-0.1,0.1-0.1,0.14c0,0.02,0.03,0.04,0.06,0.07c0.02,0.01,0.04,0.02,0.06,0.02
				c0.02,0,0.04,0,0.06-0.01c0.03,0,0.06-0.01,0.09-0.01c0.03,0,0.07,0.01,0.1,0.02c0.03,0.01,0.05,0.03,0.07,0.05
				c0.02,0.02,0.03,0.05,0.03,0.07l0,0.02c0,0.04-0.01,0.08-0.03,0.12c-0.01,0.03-0.03,0.05-0.03,0.08v0.01c0.01,0,0.03,0,0.04,0.01
				c0.05,0.01,0.09,0.02,0.13,0.04c0.01,0.01,0.02,0.02,0.03,0.04c0,0,0,0,0.01,0.01H6.4c0,0,0,0,0-0.01
				c0.01-0.01,0.02-0.03,0.03-0.04c0.03-0.03,0.08-0.04,0.13-0.04c0.01,0,0.03,0,0.04-0.01V12.1c0-0.03-0.01-0.05-0.02-0.08
				c-0.02-0.04-0.03-0.09-0.03-0.12l0-0.02c0-0.03,0.01-0.05,0.03-0.07c0.01-0.02,0.04-0.03,0.06-0.05c0.04-0.02,0.07-0.02,0.1-0.02
				c0.03,0,0.06,0.01,0.09,0.01c0.02,0.01,0.04,0.01,0.06,0.01c0.02,0,0.04-0.01,0.06-0.02c0.03-0.02,0.06-0.04,0.06-0.07
				c0-0.04-0.05-0.08-0.1-0.14c-0.01-0.01-0.03-0.04-0.03-0.07v-0.01c0-0.04,0.02-0.11,0.06-0.14c0.03-0.03,0.06-0.04,0.09-0.03
				l0.02,0c0.03,0,0.09,0,0.09-0.04c0-0.01,0-0.03-0.01-0.04c-0.03-0.07-0.12-0.11-0.19-0.14C6.89,11.02,6.84,10.99,6.81,10.95z
				 M6.96,10.81l-0.24-0.22H5.18l-0.24,0.22H6.96z M6.96,12.57l-0.24-0.23H5.18l-0.24,0.23H6.96z M6.31,12.72v8.51h0.37v-8.51H6.31z
				 M6.16,12.72H5.72v8.51h0.44V12.72z M5.21,12.72v8.51h0.37v-8.51H5.21z M5.06,21.23v-8.51H4.57l0.53-0.5
				c0.01-0.01,0.03-0.02,0.05-0.02h0.02c-0.01-0.01-0.01-0.02-0.02-0.03c-0.01-0.02-0.01-0.04-0.01-0.06c0-0.04,0.02-0.09,0.04-0.14
				c0.01-0.02,0.02-0.04,0.02-0.06c0,0-0.01-0.01-0.01-0.01c-0.01-0.01-0.03-0.01-0.04-0.01c-0.02,0-0.04,0-0.06,0.01
				c-0.03,0.01-0.06,0.01-0.09,0.01c-0.05,0-0.09-0.01-0.14-0.05c-0.09-0.07-0.12-0.13-0.12-0.19c0-0.06,0.04-0.13,0.13-0.23
				c0-0.01,0-0.01-0.01-0.02c-0.01,0-0.01,0-0.02,0c-0.15,0-0.24-0.08-0.24-0.19c0-0.03,0.01-0.07,0.03-0.11
				c0.04-0.08,0.11-0.13,0.19-0.18H4.75c-0.07,0-0.1-0.08-0.05-0.13l0.39-0.37c0.01-0.01,0.03-0.02,0.05-0.02h1.6
				c0.02,0,0.04,0.01,0.05,0.02l0.39,0.37c0.05,0.05,0.02,0.13-0.05,0.13H7.09c0.08,0.04,0.16,0.1,0.19,0.18
				c0.02,0.04,0.03,0.08,0.03,0.11c0,0.12-0.09,0.19-0.24,0.19c-0.01,0-0.01,0-0.02,0c0,0.01-0.01,0.02-0.01,0.02
				c0.09,0.09,0.13,0.17,0.13,0.23c0,0.06-0.03,0.12-0.12,0.19c-0.05,0.04-0.1,0.05-0.14,0.05c-0.03,0-0.06,0-0.09-0.01
				c-0.02-0.01-0.04-0.01-0.06-0.01c-0.01,0-0.03,0-0.04,0.01c0,0-0.01,0-0.01,0.01c0,0.02,0.01,0.04,0.02,0.06
				c0.02,0.04,0.04,0.09,0.04,0.14c0,0.02,0,0.04-0.01,0.06c0,0.01-0.01,0.02-0.02,0.03h0.02c0.02,0,0.04,0.01,0.05,0.02l0.53,0.5
				h-0.5v8.51h0.09c0.02,0,0.04,0.01,0.05,0.02l0.59,0.55H4.45l0.58-0.55C5.04,21.24,5.05,21.24,5.06,21.23z M7.19,21.65l-0.3-0.28
				H5.11l-0.29,0.28H7.19z"/>
			<path class="st1" d="M19.04,11.58c0-0.26,0.21-0.47,0.47-0.47c0.26,0,0.47,0.21,0.47,0.47c0,0.26-0.21,0.47-0.47,0.47
				C19.25,12.05,19.04,11.84,19.04,11.58z M19.19,11.58c0,0.18,0.14,0.32,0.32,0.32c0.18,0,0.32-0.14,0.32-0.32
				c0-0.18-0.14-0.32-0.32-0.32C19.33,11.26,19.19,11.4,19.19,11.58z M18.5,10.81h2.02l-0.24-0.22h-1.54L18.5,10.81z M18.5,12.57
				h2.02l-0.24-0.23h-1.54L18.5,12.57z M19.68,12.72h-0.39v8.51h0.39V12.72z M20.4,12.72v8.51c0.01,0,0.02,0.01,0.03,0.02l0.59,0.55
				h-3.12l0.59-0.55c0.01-0.01,0.03-0.02,0.05-0.02h0.09v-8.51h-0.5l0.53-0.5c0.01-0.01,0.03-0.02,0.05-0.02h0.02
				c-0.01-0.01-0.01-0.02-0.02-0.03c-0.01-0.02-0.01-0.04-0.01-0.06c0-0.04,0.02-0.09,0.04-0.14c0.01-0.02,0.02-0.04,0.02-0.06
				c0,0-0.01-0.01-0.01-0.01c-0.01-0.01-0.03-0.01-0.04-0.01c-0.02,0-0.04,0-0.06,0.01c-0.03,0.01-0.06,0.01-0.09,0.01
				c-0.04,0-0.09-0.01-0.14-0.05c-0.09-0.07-0.12-0.13-0.12-0.19c0-0.06,0.04-0.14,0.13-0.23c0-0.01,0-0.01-0.01-0.02
				c-0.01,0-0.01,0-0.02,0c-0.15,0-0.24-0.08-0.24-0.19c0-0.03,0.01-0.07,0.02-0.11c0.04-0.08,0.11-0.13,0.19-0.18h-0.05
				c-0.07,0-0.1-0.08-0.05-0.13l0.39-0.37c0.01-0.01,0.03-0.02,0.05-0.02h1.6c0.02,0,0.04,0.01,0.05,0.02l0.39,0.37
				c0.05,0.05,0.02,0.13-0.05,0.13h-0.05c0.08,0.04,0.16,0.1,0.19,0.18c0.02,0.04,0.03,0.08,0.03,0.11c0,0.12-0.1,0.19-0.24,0.19
				c-0.01,0-0.01,0-0.02,0c0,0.01-0.01,0.02-0.01,0.02c0.09,0.09,0.13,0.17,0.13,0.23c0,0.06-0.03,0.12-0.12,0.19
				c-0.05,0.04-0.1,0.05-0.14,0.05c-0.03,0-0.06,0-0.09-0.01c-0.02-0.01-0.04-0.01-0.06-0.01c-0.01,0-0.03,0-0.04,0.01
				c-0.01,0-0.01,0.01-0.01,0.01c0,0.02,0.01,0.04,0.02,0.06c0.02,0.04,0.04,0.09,0.04,0.14c0,0.02,0,0.04-0.01,0.06
				c-0.01,0.01-0.01,0.02-0.02,0.03h0.03c0.02,0,0.04,0.01,0.05,0.02l0.53,0.5H20.4z M20.37,10.95h-1.72
				c-0.03,0.04-0.09,0.07-0.15,0.1c-0.07,0.03-0.15,0.07-0.19,0.14c-0.01,0.02-0.01,0.03-0.01,0.04c0,0.05,0.06,0.04,0.09,0.04
				l0.02,0c0.03,0,0.07,0.01,0.09,0.03c0.03,0.03,0.06,0.1,0.06,0.14v0.01c0,0.03-0.01,0.06-0.03,0.07c-0.06,0.06-0.1,0.1-0.1,0.14
				c0,0.02,0.02,0.04,0.06,0.07c0.02,0.01,0.04,0.02,0.06,0.02c0.02,0,0.04,0,0.06-0.01c0.03,0,0.06-0.01,0.09-0.01
				c0.03,0,0.07,0.01,0.1,0.02c0.03,0.01,0.05,0.03,0.07,0.05c0.02,0.02,0.03,0.05,0.03,0.07l0,0.02c0,0.04-0.02,0.08-0.03,0.12
				c-0.01,0.03-0.02,0.05-0.02,0.08v0.01c0.01,0,0.03,0,0.04,0.01c0.05,0.01,0.09,0.02,0.13,0.04c0.01,0.01,0.02,0.02,0.03,0.03
				c0,0,0,0.01,0.01,0.01h0.91c0,0,0,0,0-0.01c0.01-0.01,0.02-0.03,0.03-0.03c0.03-0.03,0.08-0.04,0.13-0.04
				c0.01,0,0.03,0,0.04-0.01V12.1c0-0.03-0.01-0.05-0.02-0.08c-0.02-0.04-0.03-0.09-0.03-0.12c0-0.01,0-0.01,0-0.02
				c0-0.02,0.01-0.05,0.03-0.07c0.02-0.02,0.04-0.03,0.07-0.05c0.04-0.02,0.07-0.02,0.11-0.02c0.03,0,0.06,0.01,0.09,0.01
				c0.02,0.01,0.04,0.01,0.06,0.01c0.02,0,0.04-0.01,0.06-0.02c0.03-0.02,0.06-0.04,0.06-0.07c0-0.04-0.05-0.08-0.1-0.14
				c-0.01-0.01-0.03-0.04-0.03-0.07v-0.01c0-0.04,0.02-0.11,0.06-0.14c0.03-0.03,0.06-0.04,0.09-0.03l0.02,0c0.04,0,0.1,0,0.1-0.04
				c0-0.01,0-0.03-0.01-0.04c-0.03-0.07-0.12-0.1-0.19-0.14C20.46,11.02,20.4,10.99,20.37,10.95z M20.25,21.23v-8.51h-0.42v8.51
				H20.25z M19.14,21.23v-8.51h-0.36v8.51H19.14z M18.27,21.65h2.37l-0.29-0.28h-1.78L18.27,21.65z"/>
			<path class="st1" d="M6.54,9.63h12.29c0.14,0,0.25,0.11,0.25,0.24c0,0.13-0.11,0.24-0.25,0.24H6.54c-0.14,0-0.25-0.1-0.25-0.24
				C6.29,9.74,6.4,9.63,6.54,9.63z M18.82,9.74H6.54C6.47,9.74,6.4,9.8,6.4,9.87c0,0.07,0.06,0.12,0.14,0.12h12.29
				c0.07,0,0.14-0.05,0.14-0.12C18.96,9.8,18.9,9.74,18.82,9.74z"/>
			<path class="st1" d="M14.61,15.97v-1.19h2.24v2.47l-0.02,0.03c-0.21,0.24-0.51,0.46-0.9,0.65c-0.39,0.19-0.79,0.28-1.18,0.28
				c-0.51,0-0.96-0.14-1.34-0.4c-0.38-0.27-0.67-0.64-0.86-1.14c-0.19-0.49-0.28-1.01-0.28-1.58c0-0.62,0.1-1.17,0.31-1.65
				c0.21-0.49,0.52-0.87,0.94-1.13c0.32-0.2,0.71-0.31,1.18-0.31c0.61,0,1.09,0.16,1.43,0.48c0.34,0.32,0.57,0.75,0.66,1.31
				l0.02,0.1l-1.13,0.26l-0.02-0.1c-0.06-0.26-0.17-0.47-0.34-0.62c-0.16-0.15-0.37-0.22-0.61-0.22c-0.38,0-0.68,0.15-0.9,0.44
				c-0.23,0.31-0.34,0.77-0.34,1.38c0,0.66,0.11,1.16,0.35,1.49c0.22,0.31,0.52,0.47,0.88,0.47c0.18,0,0.36-0.05,0.55-0.14
				c0.17-0.08,0.32-0.19,0.45-0.3v-0.59H14.61z M11.81,17.99H9.04c-0.63,0-0.96-0.33-0.96-1.01c0-0.38,0.03-0.82,0.11-1.3l0.01-0.09
				l0.4-0.02l0.02,0.09C8.67,15.89,8.83,16,9.1,16h1.87c-0.16-0.97-0.54-1.67-1.15-2.1l-0.06-0.04l0.48-2.22l0.14,0.11
				c0.53,0.43,0.91,0.98,1.14,1.65c0.2,0.6,0.3,1.41,0.3,2.42V17.99z"/>
			<path class="st1" d="M8.26,13.15L7.75,12.3c-0.1-0.11-0.12-0.22-0.12-0.36c0-0.05,0-0.11,0.01-0.17
				c0.02-0.14,0.09-0.21,0.15-0.28l0.01-0.01c0.04-0.05,0.08-0.09,0.1-0.14c0.02-0.03,0.02-0.07,0.02-0.1c0-0.04-0.01-0.07-0.02-0.1
				c-0.02-0.06-0.08-0.13-0.13-0.19l-0.02-0.02c-0.03-0.03-0.05-0.06-0.08-0.09c-0.02-0.02-0.03-0.06-0.03-0.09l0-0.01h10.13
				c0,0,0,0,0,0.01c0,0.03-0.01,0.06-0.03,0.09c-0.02,0.03-0.05,0.06-0.08,0.09l-0.02,0.02c-0.06,0.06-0.11,0.13-0.13,0.2
				c-0.01,0.03-0.02,0.07-0.02,0.1c0,0.03,0.01,0.07,0.02,0.1c0.02,0.05,0.06,0.1,0.1,0.14l0.01,0.01c0.06,0.06,0.13,0.14,0.15,0.28
				c0.01,0.06,0.01,0.12,0.01,0.17c0,0.14-0.03,0.25-0.13,0.36l-0.52,0.85h0.66v5.98H7.6v-5.98H8.26z M16.94,13.26l0.63-1.02
				c0.08-0.09,0.1-0.18,0.1-0.29c0-0.05,0-0.1-0.01-0.15c-0.01-0.11-0.07-0.16-0.11-0.21l-0.01-0.01l-0.01-0.01
				c-0.05-0.06-0.09-0.11-0.12-0.18c-0.02-0.05-0.03-0.1-0.03-0.14c0-0.05,0.01-0.09,0.02-0.14c0.03-0.08,0.09-0.16,0.15-0.23
				l0.02-0.02l0,0H7.82l0,0l0.02,0.02C7.91,10.95,7.97,11.03,8,11.1c0.01,0.05,0.02,0.09,0.02,0.14c0,0.05-0.01,0.1-0.03,0.15
				c-0.03,0.06-0.07,0.12-0.12,0.17l-0.01,0.01l0,0.01c-0.04,0.05-0.1,0.1-0.11,0.21c-0.01,0.06-0.01,0.11-0.01,0.15
				c0,0.11,0.02,0.2,0.1,0.29l0.63,1.02H7.71v5.76h9.98v-5.76H16.94z"/>
			<path class="st1" d="M12.49,3.03c0.02-0.05,0.08-0.07,0.16-0.09c0.02,0,0.05-0.01,0.08-0.02c0.03-0.01,0.07-0.03,0.07-0.05l0,0
				c-0.06-0.03-0.18-0.04-0.3-0.04c-0.16,0-0.33,0.02-0.45,0.03l-0.07,0.01c-0.14,0.01-0.28,0.02-0.42,0.02
				c-0.2,0-0.38-0.03-0.5-0.11c-0.1-0.07-0.14-0.14-0.14-0.2c0-0.17,0.32-0.33,0.63-0.38c0.11-0.02,0.23-0.03,0.35-0.03
				c0.18,0,0.38,0.02,0.58,0.04l0.02,0c0.04,0,0.08,0.01,0.12,0.01l0.26,0.03c0.36,0.04,0.73,0.07,1.01,0.08l0.1,0
				c0.3,0,0.54-0.04,0.75-0.09c0.15-0.04,0.28-0.1,0.3-0.2c0-0.01,0-0.02,0-0.03c0-0.09-0.09-0.17-0.27-0.19c-0.03,0-0.06,0-0.09,0
				c-0.11,0-0.24,0.01-0.38,0.03L14.1,1.86c-0.02,0-0.03,0-0.05,0c-0.01,0-0.02,0-0.02,0c-0.08,0-0.15,0.01-0.23,0.01
				c-0.13,0-0.27-0.01-0.41-0.05c-0.15-0.04-0.27-0.16-0.27-0.28c0-0.05,0.02-0.11,0.07-0.16c0.14-0.14,0.41-0.17,0.71-0.17
				c0.1,0,0.2,0,0.31,0.01l0.09,0c0.09,0,0.18,0.01,0.27,0.01c0.22,0,0.43-0.01,0.51-0.14c0.01-0.01,0.01-0.03,0.01-0.04
				c0-0.11-0.27-0.16-0.41-0.17c-0.09-0.01-0.07-0.1,0.01-0.1h0.01c0.11-0.01,0.25-0.02,0.39-0.02c0.13,0,0.27,0.01,0.38,0.03
				c0.21,0.04,0.39,0.14,0.38,0.31c-0.02,0.2-0.42,0.28-0.67,0.29l-0.07,0c-0.29,0-0.8-0.05-1.08-0.08l-0.12,0
				c-0.25,0-0.48,0.02-0.61,0.14c-0.03,0.03-0.04,0.06-0.04,0.09c0,0.08,0.08,0.16,0.18,0.18c0.12,0.04,0.24,0.05,0.36,0.05
				c0.08,0,0.15,0,0.23-0.01c0.46-0.11,0.67-0.15,0.9-0.18c0.06-0.01,0.12-0.01,0.18-0.01c0.23,0,0.46,0.04,0.56,0.13
				c0.09,0.07,0.11,0.15,0.11,0.22c0,0.06-0.02,0.11-0.04,0.15c-0.15,0.34-0.77,0.36-0.91,0.37l-0.09,0c-0.19,0-0.42-0.01-0.6-0.03
				c-0.01,0-0.02,0-0.03-0.01l-0.1,0l-0.11,0c-0.29-0.01-0.65-0.05-1.02-0.08l-0.26-0.03c-0.04-0.01-0.09-0.01-0.13-0.01
				c-0.39,0.01-0.58,0.12-0.66,0.19c-0.02,0.02-0.02,0.04-0.02,0.05c0,0.07,0.1,0.11,0.2,0.13c0.06,0.01,0.12,0.01,0.18,0.01
				c0.13,0,0.26-0.02,0.38-0.04l0.16-0.03c0.07-0.01,0.14-0.02,0.21-0.02c0.07,0,0.15,0.01,0.24,0.04c0.14,0.05,0.19,0.12,0.19,0.19
				c0,0.08-0.07,0.16-0.17,0.22c0.02,0,0.05,0.01,0.07,0.02c0.36,0.09,0.57,0.25,0.57,0.42c0,0.07-0.03,0.14-0.09,0.2
				c2.33,0.42,4.19,2.21,4.72,4.5c0.07,0.29,0.13,0.61,0.14,0.89H6.78C6.82,8.72,6.87,8.35,6.97,8c0.6-2.24,2.47-3.95,4.79-4.32
				c-0.05-0.06-0.07-0.12-0.07-0.18C11.68,3.29,11.99,3.08,12.49,3.03z M12.76,3.02c0.09,0,0.18,0,0.26,0.01
				c0.11-0.03,0.22-0.11,0.22-0.19c0-0.04-0.04-0.07-0.11-0.1C13.06,2.71,13,2.7,12.95,2.7c-0.06,0-0.12,0.01-0.19,0.02l-0.11,0.02
				c0.09,0.01,0.17,0.02,0.22,0.05c0.01,0.01,0.02,0.02,0.03,0.02c0.02,0.02,0.03,0.04,0.03,0.06l0,0.01c0,0.04-0.05,0.09-0.14,0.13
				C12.78,3.01,12.77,3.01,12.76,3.02z M12.49,3.38c0,0.08,0.16,0.11,0.28,0.11c0.12,0,0.28-0.03,0.28-0.11
				c0-0.08-0.16-0.12-0.28-0.12C12.65,3.26,12.49,3.29,12.49,3.38z M12.98,3.61c0.21,0.01,0.41,0.03,0.62,0.06
				c0-0.02,0.01-0.04,0.03-0.05c0.05-0.04,0.08-0.08,0.08-0.12c0-0.16-0.29-0.27-0.63-0.31c0.09,0.05,0.14,0.12,0.14,0.2
				C13.2,3.46,13.12,3.56,12.98,3.61z M12.7,3.98c-2.57,0-4.71,1.8-5.37,4.16C7.26,8.4,7.21,8.67,7.18,8.97h11.05
				c-0.04-0.24-0.08-0.51-0.15-0.77C17.46,5.8,15.29,3.98,12.7,3.98z M11.9,3.65c0.21-0.03,0.43-0.05,0.65-0.05
				c-0.13-0.05-0.21-0.14-0.21-0.23c0-0.07,0.05-0.15,0.14-0.2c-0.35,0.04-0.65,0.15-0.65,0.32c0,0.04,0.02,0.07,0.05,0.1
				C11.9,3.61,11.91,3.63,11.9,3.65z M11.95,2.77c-0.16-0.04-0.27-0.13-0.27-0.22c0-0.04,0.01-0.07,0.05-0.11
				c0.05-0.05,0.15-0.12,0.31-0.17c-0.04,0-0.08,0-0.12,0c-0.11,0-0.22,0.01-0.33,0.02c-0.23,0.04-0.53,0.14-0.53,0.28
				c0,0.04,0.03,0.09,0.1,0.13c0.09,0.07,0.24,0.08,0.41,0.08C11.69,2.79,11.82,2.78,11.95,2.77z M14.64,2.36l0.17,0l0.01,0
				c0.13,0,0.66-0.01,0.8-0.3c0.02-0.04,0.03-0.08,0.03-0.12c0-0.05-0.02-0.11-0.08-0.16c-0.08-0.07-0.28-0.1-0.46-0.1
				c-0.06,0-0.11,0-0.16,0.01c-0.07,0.01-0.13,0.01-0.2,0.03c0.02,0,0.05,0,0.07,0c0.27,0.02,0.38,0.16,0.38,0.29
				c0,0.02,0,0.03-0.01,0.05C15.16,2.18,15,2.28,14.8,2.33C14.75,2.34,14.7,2.35,14.64,2.36z M14.95,1.3c0.06,0,0.11,0,0.16,0
				c0.02,0,0.05,0,0.07,0c0.17-0.01,0.53-0.03,0.54-0.2c0.01-0.12-0.14-0.18-0.28-0.2c-0.1-0.02-0.22-0.02-0.35-0.02h-0.05
				c0.1,0.04,0.18,0.11,0.18,0.18c0,0.03-0.01,0.05-0.03,0.09C15.15,1.22,15.06,1.27,14.95,1.3z M17.38,8.8h-0.5
				c-0.04-1.28-0.63-2.38-1.33-3.3C16.49,6.3,17.14,7.44,17.38,8.8z M17.65,8.8c-0.34-1.96-1.61-3.55-3.28-4.21
				c1.28,0.98,2.12,2.49,2.18,4.21h-0.59c-0.04-2.14-1.37-3.96-3.25-4.71c0.37,0,0.74,0.04,1.09,0.12c0.77,0.16,1.49,0.49,2.1,0.94
				c1.16,0.85,1.96,2.15,2.16,3.65H17.65z M8.02,8.8c0.24-1.36,0.89-2.5,1.83-3.3C9.14,6.42,8.56,7.52,8.52,8.8H8.02z M7.75,8.8
				H7.33c0.2-1.49,1.01-2.79,2.16-3.65c0.62-0.45,1.33-0.78,2.1-0.94c0.36-0.07,0.72-0.11,1.1-0.12C10.81,4.84,9.48,6.67,9.44,8.8
				H8.85c0.06-1.71,0.9-3.23,2.18-4.21C9.36,5.25,8.09,6.84,7.75,8.8z"/>
		</g>
	</g>
	<g>
		<path class="st1" d="M4.33,26.81l-2.2,0.01c-0.12-0.12-0.2-0.35-0.18-0.61c0.01-0.15,0.06-0.27,0.12-0.36
			c0.16-0.23,0.49-0.36,0.8-0.3c-0.1,0.05-0.23,0.18-0.31,0.29c-0.04,0.06-0.08,0.14-0.08,0.26c0,0.08,0.02,0.16,0.05,0.22
			l1.06-0.01c0.01-0.23,0.12-0.45,0.26-0.57c0.49-0.44,1.14-0.41,1.56-0.23c-0.13,0.11-0.32,0.45-0.21,0.79l0.69,0v-0.02
			c0-0.09,0.01-0.17,0.03-0.24c0.06-0.27,0.24-0.43,0.46-0.51c0.11-0.04,0.31-0.07,0.45-0.07c-0.13,0.14-0.3,0.37-0.33,0.62
			c-0.01,0.05-0.01,0.11-0.01,0.16c0,0.02,0,0.04,0,0.05l0.51,0c0.04-0.17,0.11-0.31,0.21-0.4c0.09-0.09,0.19-0.16,0.33-0.18
			c0.18-0.31,0.46-0.51,0.91-0.5c0.25,0.03,0.5,0.13,0.68,0.38c0.05,0.08,0.08,0.19,0.08,0.3c0,0.08-0.01,0.16-0.04,0.24l-0.22,0.66
			l-4.2,0.02c-0.08-0.09-0.14-0.32-0.13-0.5c0-0.16,0.08-0.39,0.21-0.52c-0.13,0.01-0.26,0.04-0.38,0.11
			c-0.15,0.09-0.24,0.3-0.24,0.45C4.22,26.5,4.25,26.61,4.33,26.81z M3.69,27.3c0,0.13-0.11,0.25-0.28,0.25
			c-0.16,0-0.28-0.12-0.28-0.25c0-0.13,0.11-0.25,0.28-0.25C3.57,27.05,3.68,27.17,3.69,27.3z M2.9,27.3c0,0.13-0.11,0.25-0.28,0.25
			c-0.16,0-0.28-0.12-0.28-0.25c0-0.13,0.12-0.25,0.28-0.25C2.78,27.05,2.9,27.17,2.9,27.3z M5.39,27.29c0-0.13,0.11-0.25,0.28-0.25
			c0.16,0,0.28,0.12,0.28,0.25c0,0.13-0.11,0.25-0.28,0.25C5.51,27.54,5.39,27.42,5.39,27.29z M7.22,26.3l0.44,0l0.01-0.04
			c0-0.01,0-0.02,0-0.03c0-0.09-0.08-0.13-0.16-0.13c-0.01,0-0.01,0-0.02,0C7.38,26.11,7.28,26.2,7.22,26.3z M8.12,26.3l0.4,0
			l0.08-0.28c0.01-0.03,0.01-0.07,0.01-0.1c0-0.1-0.05-0.18-0.1-0.23c-0.08-0.07-0.21-0.1-0.33-0.1c-0.02,0-0.05,0-0.07,0.01
			c-0.07,0.01-0.22,0.04-0.31,0.13c0.17,0.04,0.29,0.16,0.32,0.37c0,0.02,0.01,0.05,0.01,0.07C8.14,26.2,8.13,26.25,8.12,26.3z
			 M9.52,26.29l1.01,0c0,0,0-0.01,0-0.01c0.02-0.05,0.05-0.12,0.04-0.19c0-0.01,0-0.02,0-0.03c-0.03-0.22-0.27-0.25-0.44-0.26
			C10,25.79,9.78,25.83,9.6,25.85c0.17-0.26,0.45-0.46,0.85-0.45c0.16,0,0.32,0.05,0.43,0.14c0.16,0.11,0.29,0.27,0.29,0.57
			c0,0.06-0.01,0.12-0.02,0.17c0,0,0,0.01,0,0.01l0.41,0l0.14-1.34c0.02-0.16,0.12-0.45,0.27-0.59c0.14-0.13,0.34-0.23,0.55-0.27
			c-0.13,0.21-0.26,0.59-0.28,0.81l-0.2,1.89l-2.71,0.01L9.52,26.29z M10.2,24.88c0-0.13,0.12-0.25,0.28-0.25
			c0.16,0,0.28,0.12,0.28,0.25c0,0.13-0.11,0.25-0.28,0.25C10.31,25.13,10.2,25.01,10.2,24.88z M12.64,24.94
			c0.02-0.16,0.12-0.45,0.27-0.59c0.14-0.13,0.34-0.23,0.55-0.27c-0.14,0.24-0.25,0.53-0.28,0.81l-0.2,1.89l-0.55,0L12.64,24.94z"/>
		<path class="st1" d="M23.45,24.19c-0.06,0.1-0.16,0.31-0.2,0.43c-0.04,0.13-0.07,0.26-0.08,0.37l-0.2,1.74l-0.55,0l0.2-1.69
			c0.02-0.16,0.12-0.45,0.27-0.59C23.04,24.32,23.24,24.22,23.45,24.19z M22.43,24.19c-0.07,0.11-0.17,0.32-0.21,0.46
			c-0.04,0.12-0.06,0.25-0.07,0.35l-0.2,1.74l-7.64,0.02c-0.1-0.09-0.2-0.35-0.18-0.61c0.01-0.15,0.06-0.27,0.12-0.36
			c0.15-0.2,0.4-0.32,0.7-0.32c0.02,0,0.19,0.01,0.21,0.01c-0.18,0.13-0.5,0.23-0.5,0.57c0,0.08,0.02,0.16,0.05,0.21l1.54,0v-0.02
			c0-0.09,0.01-0.17,0.02-0.25c0.06-0.27,0.24-0.43,0.46-0.51c0.11-0.04,0.31-0.07,0.45-0.07c-0.13,0.14-0.3,0.37-0.33,0.62
			c-0.01,0.05-0.01,0.11-0.01,0.16c0,0.02,0,0.04,0,0.05l1.48,0c0-0.01,0-0.01,0-0.02c0-0.09,0.01-0.17,0.02-0.25
			c0.06-0.27,0.24-0.43,0.46-0.51c0.11-0.04,0.3-0.07,0.45-0.07c-0.13,0.14-0.3,0.37-0.33,0.62c-0.01,0.06-0.02,0.15-0.01,0.22
			l1.14,0c0-0.01,0-0.01,0-0.02c0-0.09,0.01-0.17,0.03-0.25c0.06-0.27,0.24-0.43,0.46-0.51c0.11-0.04,0.31-0.07,0.45-0.07
			c-0.13,0.14-0.3,0.37-0.33,0.62c0,0.05-0.01,0.11-0.01,0.16c0,0.02,0,0.04,0,0.05l0.78,0l0.14-1.19c0.02-0.16,0.12-0.45,0.27-0.59
			C22.02,24.32,22.23,24.23,22.43,24.19z M19.72,27.31c0,0.13-0.11,0.25-0.28,0.25c-0.16,0-0.28-0.12-0.28-0.25
			c0-0.13,0.11-0.25,0.28-0.25C19.6,27.06,19.72,27.17,19.72,27.31z M18.32,27.31c0,0.13-0.11,0.25-0.28,0.25
			c-0.16,0-0.28-0.12-0.28-0.25c0-0.13,0.11-0.25,0.28-0.25C18.2,27.06,18.32,27.18,18.32,27.31z M17.47,27.31
			c0,0.13-0.11,0.25-0.28,0.25c-0.16,0-0.28-0.12-0.28-0.25c0-0.13,0.11-0.25,0.28-0.25C17.35,27.06,17.47,27.18,17.47,27.31z
			 M16.56,24.99c0,0.13-0.11,0.25-0.28,0.25c-0.16,0-0.28-0.12-0.28-0.25c0-0.13,0.11-0.25,0.28-0.25
			C16.44,24.74,16.56,24.86,16.56,24.99z M15.77,24.99c0,0.13-0.11,0.25-0.28,0.25c-0.16,0-0.28-0.12-0.28-0.25
			c0-0.13,0.11-0.25,0.28-0.25C15.65,24.74,15.77,24.86,15.77,24.99z"/>
	</g>
</g>
</svg>
